<svg width="25" height="25" xmlns="http://www.w3.org/2000/svg"><path fill="none" d="M-1-1h27v27H-1z"/><g><path fill="#fff" opacity=".7" stroke="null" d="M24.758 5.072c-.91.404-1.89.677-2.917.8a5.088 5.088 0 0 0 2.233-2.81 10.167 10.167 0 0 1-3.225 1.233 5.079 5.079 0 0 0-8.654 4.632A14.42 14.42 0 0 1 1.726 3.62a5.053 5.053 0 0 0-.687 2.554c0 1.762.896 3.317 2.26 4.227a5.064 5.064 0 0 1-2.301-.635v.064c0 2.46 1.75 4.512 4.073 4.98a5.106 5.106 0 0 1-2.294.086 5.084 5.084 0 0 0 4.745 3.527 10.189 10.189 0 0 1-6.308 2.175c-.41 0-.814-.024-1.211-.072a14.372 14.372 0 0 0 7.785 2.282c9.342 0 14.45-7.738 14.45-14.45 0-.22-.004-.44-.014-.658a10.287 10.287 0 0 0 2.534-2.628z"/></g></svg>