<svg width="137" height="63" xmlns="http://www.w3.org/2000/svg">
  <path d="M.75.7V20H11.1v-2.23H3.13v-6.94h6.64V8.6H3.13V2.8h7.35V.7H.75zM21.02 20h2.68l-4.4-7.4 4.15-7.17h-2.6l-1.35 2.3-1.55 2.92-1.5-2.9-1.37-2.32H12.4l4.18 7.2L12.25 20h2.6l1.45-2.52 1.62-3.1 1.63 3.07L21.02 20zm4.53 4.92V5.37h2l.3 1.93c.45-1.28 1.92-2 3.63-2 2.92 0 4.94 1.33 4.94 5.28v3.84c0 3.96-1.87 5.68-4.95 5.68-1.57 0-2.72-.23-3.52-1.27v6.1h-2.4zm2.4-10.42c0 2.5.88 3.3 3 3.3 2.13 0 3.1-.85 3.1-3.43v-3.82c0-2.4-.97-3.03-2.92-3.03-2.03.08-3.18.96-3.18 3.83v3.15zm22.52-9.02h-2.4v9.42c0 2.08-1.42 3.1-3.22 3.1-1.73 0-2.85-1.05-2.85-3.13v-9.4h-2.4v9.43c0 3.9 1.62 5.27 4.85 5.27 1.42 0 2.88-.3 3.75-1.72l.15 1.55h2.12V5.48zM54.2 20h2.4v-9.52c0-2.08 1.43-3.1 3.23-3.1 1.72 0 2.84 1.04 2.84 3.12V20h2.4v-9.52c0-3.9-1.62-5.28-4.84-5.28-1.43 0-2.88.3-3.76 1.72l-.14-1.54H54.2V20zm18.92.08c-3.37 0-5.07-1.73-5.07-5.03v-4.43c0-3.95 2.03-5.27 4.95-5.27 1.7 0 3.13.73 3.58 2l.3-1.85h1.97v15c0 3.98-2.15 5.58-5.4 5.58-3.1 0-4.95-1.16-5.08-4.35h2.28c.13 1.75 1.25 2.17 2.82 2.17 1.9 0 3.16-.75 3.16-3.4v-2.4c-.35.98-1.6 1.98-3.5 1.98zm0-2.23c2.05 0 3.35-.8 3.35-3.83V11.2c-.05-2.72-1.14-3.55-3.12-3.62-1.95 0-2.92.62-2.92 3.02v4.17c0 2.3 1 3.08 2.7 3.08zm16.75-2.1h2.3c0 2.83-1.55 4.4-5.34 4.4-3.9 0-5.4-1.42-5.4-5.35v-4.28c0-3.82 2.07-5.22 5.4-5.22 3.27 0 5.4 1.43 5.4 5.22v3.13h-8.45v1.1c0 2.6.94 3.2 3.05 3.2 2.1 0 3.05-.7 3.05-2.2zm-6.1-5.23v1.06h6.18v-1.06c0-2.57-1.25-3.12-3.13-3.12-1.87 0-3.04.52-3.04 3.12zM3.48 36.7H.75V56h2.38v-9.08l-.36-5.27L6.3 52.47h1.15l3.53-10.82-.36 5.27V56H13V36.7h-2.73l-3.4 10.6-3.4-10.6zm22.78 9.42V56H24.1l-.2-1.97a4.19 4.19 0 0 1-3.73 2.1c-3.34 0-4.17-1.78-4.34-3.5-.25-2.58 1.5-4.43 4.5-4.85 1.15-.18 2.37-.2 3.52-.23v-1.42c0-1.66-.58-2.73-2.77-2.73-1.38 0-2.33.48-2.3 2.45h-2.33c-.1-3.25 1.6-4.63 4.7-4.63 3.2 0 5.1 1.36 5.1 4.9zm-2.35 3.4c-.67 0-2.13-.02-3.38.26-1.62.34-2.47 1.12-2.3 2.55.1 1.14 1.13 1.52 2.2 1.52 2.63 0 3.4-1.93 3.48-4.32zm11.9-8.15c-1.8-.37-3.47.26-4.2 1.35l-.1-1.34h-2.17v14.65h2.37v-9.4c0-2.26 1.8-3.2 4.1-2.83v-2.42zm5.1 4.7l-1.4-4.7h-2.6l4.65 14.66-.6 2.07c-.6 1.87-1.78 1.65-2.8 1.23l-.43 2.02c2.78 1.12 4.4.4 5.33-2.55l.88-2.77 4.57-14.66h-2.47l-1.43 4.55a62.99 62.99 0 0 0-1.82 6.93l-1.88-6.77zm9.65 6.13c0 3.08.98 3.8 3.83 3.8v-2.35c-1.05 0-1.5-.3-1.5-1.48V36.7h-2.33v15.5zm16.1-6.08V56H64.5l-.2-1.97a4.19 4.19 0 0 1-3.72 2.1c-3.36 0-4.18-1.78-4.36-3.5-.25-2.58 1.5-4.43 4.5-4.85 1.16-.18 2.38-.2 3.53-.23v-1.42c0-1.66-.58-2.73-2.78-2.73-1.37 0-2.32.48-2.3 2.45h-2.32c-.1-3.25 1.6-4.63 4.7-4.63 3.2 0 5.1 1.36 5.1 4.9zm-2.35 3.4c-.67 0-2.13-.02-3.38.26-1.62.34-2.47 1.12-2.3 2.55.1 1.14 1.13 1.52 2.2 1.52 2.63 0 3.4-1.93 3.48-4.32zM70.2 56h2.4v-9.53c0-2.07 1.43-3.1 3.23-3.1 1.72 0 2.84 1.05 2.84 3.13V56h2.4v-9.53c0-3.9-1.62-5.27-4.84-5.27-1.43 0-2.88.3-3.76 1.72l-.14-1.55H70.2V56zm24.83-19.55V56h-2l-.3-1.92c-.45 1.27-1.93 2-3.63 2-2.92 0-4.95-1.33-4.95-5.28v-3.85c0-3.95 1.88-5.67 4.95-5.67 1.58 0 2.73.22 3.53 1.27v-6.1h2.4zm-2.4 10.42c0-2.5-.88-3.3-3-3.3-2.13 0-3.1.85-3.1 3.43v3.83c0 2.4.97 3.02 2.92 3.02 2.02-.07 3.17-.95 3.17-3.82v-3.16zm5.57 7.9c0 1.9 2.87 1.78 2.87 0 0-1.9-2.87-1.82-2.87 0zm10.5-.6c2.2 0 3.1-.84 3.1-3.5V46.5c0-2.65-1.12-3.17-3.1-3.17s-3.1.52-3.1 3.17v4.17c0 2.66.97 3.5 3.1 3.5zm0 2.08c-3.95 0-5.48-1.6-5.48-5.58V46.5c0-3.88 2.1-5.3 5.48-5.3 3.37 0 5.48 1.42 5.48 5.3v4.17c0 3.98-1.6 5.58-5.48 5.58zm14.7-14.88c-1.8-.37-3.47.26-4.2 1.35l-.1-1.34h-2.17v14.65h2.37v-9.4c0-2.26 1.8-3.2 4.1-2.83v-2.42zm7.05 14.7c-3.38 0-5.07-1.72-5.07-5.02v-4.42c0-3.96 2.02-5.28 4.94-5.28 1.7 0 3.13.73 3.58 2l.3-1.85h1.98v15c0 3.97-2.16 5.58-5.4 5.58-3.1 0-4.96-1.16-5.08-4.36h2.27c.13 1.75 1.25 2.18 2.83 2.18 1.9 0 3.15-.75 3.15-3.4v-2.4c-.35.98-1.6 1.98-3.5 1.98zm0-2.22c2.05 0 3.35-.8 3.35-3.82V47.2c-.05-2.73-1.15-3.55-3.13-3.63-1.94 0-2.92.63-2.92 3.03v4.18c0 2.3 1 3.07 2.7 3.07z" fill="#FFF" fill-rule="evenodd"/>
</svg>
